<svg version="1.2" xmlns="http://www.w3.org/2000/svg" viewBox="0 0 400 400" width="400" height="400">	
	<style>
		.s0 { fill: #bc2424 } 
	</style>
	<path id="trait1" class="s0" d="m284.6 126.1l-0.9 4.9-197.7-35.7 0.9-4.9z"/>
	<path id="trait2" class="s0" d="m281.5 128.9l4.3 2.5-88.6 153.4-4.3-2.5z"/>
	<path id="trait3" class="s0" d="m82 100l3.5-3.5 105.8 192.5-3.6 3.5z"/>
	<path id="rond1" class="s0" d="m87.5 127c-18 0-32.5-14.5-32.5-32.5 0-18 14.5-32.5 32.5-32.5 18 0 32.5 14.5 32.5 32.5 0 18-14.5 32.5-32.5 32.5z"/>
	<path id="rond2" class="s0" d="m282 151c-14.4 0-26-11.6-26-26 0-14.4 11.6-26 26-26 14.4 0 26 11.6 26 26 0 14.4-11.6 26-26 26z"/>
	<path id="rond3" class="s0" d="m187 342c-27.7 0-50-22.4-50-50 0-27.6 22.3-50 50-50 27.7 0 50 22.4 50 50 0 27.6-22.3 50-50 50z"/>
</svg>